<svg width="747" height="136" viewBox="0 0 747 136" fill="none" xmlns="http://www.w3.org/2000/svg">
<path d="M2.78631 13.7812H15.2611C17.2978 13.7812 20.7488 16.7243 25.6284 22.5961C34.4683 32.258 41.8796 40.1396 47.8907 46.2411C48.3857 46.6574 48.8807 46.8728 49.3757 46.8728C50.3658 46.8728 50.8608 46.0975 50.8608 44.5327V24.5198C50.8608 20.0406 52.0489 17.0976 54.4392 15.705C57.0134 14.4273 59.3471 13.7812 61.4403 13.7812H65.0187C66.716 13.7812 67.5646 14.858 67.5646 16.9971V71.1351C67.5646 72.7287 66.9281 73.5183 65.6693 73.5183H51.469C50.0122 73.5183 47.8341 71.7237 44.9205 68.1346C42.318 65.651 36.6605 59.5639 27.9621 49.8733C22.3047 44.0015 19.2779 41.0584 18.8677 41.0584H18.203C17.5099 41.4174 17.1705 41.9916 17.1705 42.7669V61.4876C17.0008 68.0054 16.138 71.6089 14.5539 72.2836C12.9698 72.9728 10.3108 73.3747 6.54854 73.5183H1.89526C0.763764 73.5183 0.212156 72.944 0.212156 71.8099V55.2713C0.212156 49.9451 0.141437 45.9396 0 43.2406C0.141437 40.5129 0.212156 36.5075 0.212156 31.2099V15.705C0.2263 14.4129 1.07492 13.7812 2.78631 13.7812Z" fill="#51B792"/>
<path d="M91.9712 13.7812H150.371C151.912 13.7812 152.676 14.6283 152.676 16.3367C152.676 22.2946 150.017 26.0703 144.685 27.6639H85.0124C83.7537 27.6639 83.1172 26.8887 83.1172 25.3238V24.9075C83.1172 19.6674 85.2812 16.107 89.6233 14.2119C90.1749 13.9248 90.9528 13.7812 91.9712 13.7812ZM95.0969 37.254H137.373C138.914 37.254 139.678 37.9 139.678 39.1777V40.0104C139.678 43.8867 137.429 46.801 132.931 48.7822C132.408 48.9258 131.856 48.9975 131.291 48.9975H103.102C101.15 48.9975 100.175 49.9881 100.175 51.9693V56.2332C100.175 58.0995 100.938 59.0327 102.48 59.0327H140.3C146.99 59.0327 151.05 61.8752 152.478 67.5604C152.478 67.8906 152.549 68.9673 152.69 70.7762C152.69 72.6138 151.644 73.5327 149.564 73.5327H96.5962C91.3064 73.5327 88.0816 72.7574 86.9218 71.1926C84.3901 69.1252 83.1313 66.1391 83.1313 62.2054V47.9208C83.1313 43.0683 85.4509 39.6659 90.09 37.6847C91.858 37.3976 93.527 37.254 95.0969 37.254Z" fill="#51B792"/>
<path d="M171.818 13.653H175.806C180.629 13.653 183.854 15.7778 185.481 20.0416C186.032 21.6783 186.301 22.9703 186.301 23.8892V55.4302C186.301 57.9713 187.206 59.2347 189.017 59.2347H222.184C224.574 59.2347 225.762 57.9713 225.762 55.4302V21.9654C225.762 18.3763 228.28 15.6773 233.301 13.854C234.234 13.7105 235.153 13.6387 236.059 13.6387H239.595C241.575 13.6387 242.565 14.4139 242.565 15.9788V62.8525C242.565 67.9203 239.835 71.4089 234.376 73.2896C233.301 73.4332 232.113 73.5049 230.797 73.5049H181.082C176.033 73.5049 172.737 71.8109 171.21 68.4084C169.951 67.1594 169.314 64.7332 169.314 61.1441V16.8258C169.314 14.7154 170.149 13.653 171.818 13.653Z" fill="#51B792"/>
<path d="M269.452 13.6543H321.02C326.098 13.6543 329.422 15.8795 330.977 20.3444V31.126C330.977 39.7542 330.341 44.6354 329.082 45.7409C327.951 48.0523 325.263 49.2151 321.02 49.2151C319.874 49.6602 319.295 50.3062 319.295 51.1389C323.792 60.4418 327.272 67.175 329.704 71.3527L329.917 72.4438C329.648 73.1186 329.365 73.4775 329.096 73.5349H314.443C312.986 73.5349 310.936 70.6636 308.277 64.9354C303.553 55.9339 300.724 50.9092 299.804 49.8468C299.097 49.4305 298.39 49.2151 297.711 49.2151H279.225C277.528 49.2151 276.679 50.8518 276.679 54.1394V71.8121C276.679 72.9606 276.114 73.5205 274.996 73.5205H260.315C259.056 73.5205 258.42 72.7309 258.42 71.1374V47.6646C258.42 43.2429 260.259 40.1562 263.936 38.4335C265.506 37.5721 267.274 37.1414 269.24 37.1414H276.651C284.798 37.1414 296.41 37.0696 311.473 36.926C312.548 36.926 313.17 36.0646 313.368 34.3419V30.4513C313.368 28.585 312.166 27.6518 309.748 27.6518H260.768C259.198 27.6518 258.42 27.0057 258.42 25.728V25.0533C258.42 20.4879 260.046 17.186 263.314 15.1474C265.761 14.1568 267.811 13.6543 269.452 13.6543Z" fill="#51B792"/>
<path d="M480.607 13.7812H536.744C538.285 13.7812 539.049 14.3555 539.049 15.4897V18.2461C539.049 22.309 536.73 25.3812 532.09 27.4342C531.864 27.5778 531.525 27.6495 531.058 27.6495H474.511C473.111 27.6495 472.418 27.0753 472.418 25.9411V23.601C472.418 19.3659 473.818 16.5233 476.619 15.0733C478.047 14.2119 479.377 13.7812 480.607 13.7812ZM482.913 38.7614H486.703C488.245 38.7614 489.009 39.6084 489.009 41.3168V56.6926C489.249 58.2574 490.041 59.0327 491.356 59.0327H526.871C533.816 59.0327 537.875 62.0762 539.049 68.1777V71.6089C539.049 72.8866 537.988 73.5326 535.881 73.5326H483.988C478.471 73.5326 474.893 71.8242 473.238 68.393C472.687 66.8856 472.418 65.3925 472.418 63.9282V49.2272C472.418 42.25 475.911 38.7614 482.913 38.7614Z" fill="#F42E56"/>
<path d="M557.449 13.6543H569.67C571.211 13.6543 571.975 14.2286 571.975 15.3627V71.5968C571.975 72.8746 570.914 73.5206 568.807 73.5206H558.482C556.233 73.5206 555.102 72.8171 555.102 71.3958V15.578C555.102 14.3003 555.879 13.6543 557.449 13.6543Z" fill="#F42E56"/>
<path d="M599.183 13.6543H655.645C656.748 13.6543 657.512 14.085 657.95 14.9464V18.1191C657.95 21.1483 656.479 23.7899 653.552 26.0152C651.161 27.2929 649.266 27.9389 647.866 27.9389H635.476C633.086 27.9389 631.898 28.9295 631.898 30.9107V70.9795C631.898 72.6735 630.851 73.5349 628.772 73.5349H618.277C616.028 73.5349 614.897 72.8315 614.897 71.4102V30.7241C614.897 28.8864 613.567 27.9676 610.908 27.9676H590.57C589.438 27.9676 588.887 27.3216 588.887 26.0439V22.1964C588.887 18.4924 591.404 15.7216 596.454 13.884C597.373 13.7261 598.278 13.6543 599.183 13.6543Z" fill="#F42E56"/>
<path d="M668.938 13.6543H684.284C688.23 13.6543 691.511 15.4201 694.114 18.9662C701.27 26.2018 704.976 29.834 705.231 29.834C705.81 30.1355 706.235 30.2934 706.504 30.2934C707.791 30.2934 710.167 28.2261 713.618 24.1058C713.844 24.1058 715.655 22.3256 719.091 18.7652C721.666 15.3627 724.89 13.6687 728.766 13.6687H744.692C745.738 13.6687 746.29 13.884 746.375 14.3003C746.375 15.1043 743.786 17.9469 738.596 22.828C723.066 38.5627 715.301 46.6597 715.301 47.1047L715.089 49.2295V69.9027C715.089 72.329 714.325 73.5349 712.783 73.5349H701.666C699.276 73.5349 698.088 72.8889 698.088 71.6112V51.3542C698.088 47.478 696.688 44.6354 693.887 42.8265C693.887 42.5538 693.053 41.6924 691.37 40.2711C691.37 40.0414 689.828 38.4909 686.759 35.5909C675.232 23.8043 668.513 16.8414 666.59 14.7023V14.286C666.632 13.8696 667.396 13.6543 668.938 13.6543Z" fill="#F42E56"/>
<path d="M384.921 37.0826L383.903 6.79059C384.171 6.7188 384.412 6.61831 384.652 6.47474L391.993 14.4426C391.653 14.945 391.441 15.5624 391.441 16.2371C391.441 17.9886 392.827 19.3955 394.553 19.3955C395.133 19.3955 395.67 19.2376 396.137 18.9505L406.207 29.8901C405.642 30.6366 405.288 31.5841 405.288 32.6034C405.288 32.8618 405.316 33.1203 405.359 33.3643L388.217 39.394C387.552 38.145 386.335 37.2549 384.921 37.0826ZM413.223 29.9762L422.487 25.2817C422.43 25.052 422.402 24.8079 422.402 24.5495C422.402 23.6163 422.812 22.7693 423.449 22.195L416.759 9.67623C416.094 9.92029 415.372 10.0638 414.623 10.0638C414.524 10.0638 414.425 10.0639 414.312 10.0495L411.115 28.397C411.978 28.6985 412.699 29.2584 413.223 29.9762ZM414.057 32.5891C414.057 33.9386 413.463 35.1589 412.515 35.9772L421.751 51.439C422.133 51.2811 422.558 51.1806 422.982 51.1376L424.594 27.5787C424.014 27.392 423.491 27.0475 423.109 26.5737L413.845 31.2683C413.986 31.6846 414.057 32.1297 414.057 32.5891ZM397.65 16.2228C397.65 16.8544 397.467 17.443 397.141 17.9455L407.226 28.8851C407.919 28.4114 408.767 28.1386 409.658 28.1386C409.673 28.1386 409.701 28.1386 409.715 28.1386L412.911 9.80543C411.723 9.46088 410.663 8.77177 409.885 7.8386L397.495 15.2752C397.594 15.5767 397.65 15.8926 397.65 16.2228ZM377.114 59.3207C378.189 57.4113 380.211 56.1336 382.517 56.1336C383.889 56.1336 385.162 56.593 386.194 57.3539L406.222 35.3311C406.066 35.1302 405.939 34.9292 405.811 34.7138L388.669 40.7435C388.712 40.9876 388.74 41.246 388.74 41.5044C388.74 43.9594 386.774 45.9549 384.355 45.9549C382.8 45.9549 381.442 45.1366 380.664 43.9019L362.39 51.8697C362.418 52.0564 362.433 52.2287 362.433 52.4296C362.433 52.6163 362.418 52.8029 362.39 52.9752L377.114 59.3207ZM423.392 60.0098C420.973 60.0098 419.007 58.0143 419.007 55.5593C419.007 54.2098 419.601 52.9895 420.549 52.1712L411.313 36.7094C410.804 36.9104 410.252 37.0252 409.673 37.0252C409.602 37.0252 409.531 37.0252 409.46 37.0252L404.058 62.7376C405.062 63.2257 405.783 64.2306 405.84 65.4222L426.192 69.0974C426.574 67.7767 427.38 66.6425 428.441 65.8385L424.948 59.7227C424.467 59.9093 423.944 60.0098 423.392 60.0098ZM402.686 62.4504L408.088 36.7381C407.791 36.6232 407.523 36.4797 407.268 36.3074L387.241 58.3301C388.188 59.4356 388.754 60.8712 388.754 62.4504C388.754 62.5366 388.754 62.6083 388.754 62.6945L399.871 64.4316C400.309 63.2831 401.399 62.4791 402.686 62.4504ZM424.693 21.5059C424.962 21.4341 425.231 21.3911 425.514 21.3911C427.239 21.3911 428.625 22.798 428.625 24.5495C428.625 24.6643 428.625 24.7792 428.611 24.894L436.998 27.9089C437.522 27.0044 438.342 26.301 439.332 25.942C435.57 17.0841 428.965 9.77672 420.676 5.19702C420.309 6.79059 419.333 8.14009 418.017 9.01583L424.693 21.5059ZM384.893 68.2935C384.157 68.595 383.365 68.7672 382.517 68.7672C379.08 68.7672 376.293 65.939 376.293 62.4504C376.293 61.8187 376.378 61.2158 376.548 60.6415L361.824 54.2673C361.386 54.8702 360.764 55.3009 360.028 55.4732C364.017 68.7242 374.158 79.2618 387.071 83.6405C387.212 82.2479 387.99 81.0563 389.108 80.3529L384.893 68.2935ZM425.938 70.9207C425.938 70.7915 425.938 70.6623 425.952 70.5331L405.599 66.8578C405.118 67.9776 404.015 68.7672 402.742 68.7672C401.101 68.7672 399.758 67.4752 399.645 65.8529L388.528 64.1158C388.146 65.5371 387.297 66.743 386.152 67.59L390.423 79.8073C390.748 79.7356 391.088 79.6925 391.441 79.6925C393.86 79.6925 395.826 81.688 395.826 84.143C395.826 84.6454 395.741 85.1336 395.585 85.5786C397.198 85.7652 398.824 85.8657 400.493 85.8657C410.974 85.8657 420.563 81.9895 427.96 75.5722C426.716 74.4093 425.938 72.7583 425.938 70.9207ZM441.934 34.441C441.567 34.5415 441.185 34.599 440.789 34.599C440.166 34.599 439.572 34.4698 439.035 34.2257L426.461 52.3722C427.267 53.1762 427.777 54.3103 427.777 55.545C427.777 56.9376 427.154 58.1722 426.178 58.9905L429.672 65.1207C430.436 64.7762 431.27 64.5895 432.161 64.5895C433.66 64.5895 435.046 65.1351 436.121 66.0252C440.336 59.3494 442.769 51.4247 442.769 42.9113C442.769 40.0257 442.486 37.1831 441.934 34.441ZM361.824 50.5346L380.098 42.5668C380.013 42.2222 379.971 41.8633 379.971 41.4901C379.971 40.5425 380.268 39.6668 380.763 38.949L368.359 26.7173C367.284 27.6074 365.912 28.1529 364.413 28.1529C363.21 28.1529 362.079 27.8084 361.117 27.1911C359.222 32.0722 358.189 37.3698 358.189 42.9401C358.189 45.1079 358.345 47.247 358.656 49.3287C358.868 49.2856 359.095 49.2569 359.321 49.2569C360.353 49.2425 361.259 49.745 361.824 50.5346ZM385.671 5.48415L393.025 13.4663C393.478 13.2079 393.987 13.0643 394.539 13.0643C395.416 13.0643 396.222 13.4376 396.788 14.0406L409.107 6.64702C408.654 5.77128 408.4 4.78069 408.4 3.73267C408.4 2.71336 408.64 1.73713 409.064 0.890091C406.292 0.315834 403.421 0 400.479 0C395.387 0 390.508 0.918811 385.982 2.58416C386.123 2.94307 386.194 3.33069 386.194 3.73267C386.194 4.37871 385.996 4.98168 385.671 5.48415ZM436.404 30.1485C436.404 29.847 436.432 29.5455 436.489 29.2584L428.13 26.2435C427.663 26.9901 426.9 27.5069 426.009 27.6505L424.396 51.2093C424.707 51.2811 425.019 51.396 425.301 51.5395L437.847 33.4361C436.956 32.6321 436.404 31.4549 436.404 30.1485ZM370.636 21.8218C370.636 23.2718 370.155 24.6069 369.335 25.6836L381.739 37.9153C382.248 37.5277 382.842 37.2549 383.493 37.1257L382.474 6.83366C381.527 6.64702 380.749 6.0297 380.31 5.18267C375.289 7.95346 370.876 11.7292 367.34 16.2515C369.306 17.3138 370.636 19.4099 370.636 21.8218Z" fill="url(#paint0_linear_311_3736)"/>
<path d="M17.6658 119.011C17.6658 116.692 16.8596 116.119 14.7098 116.119H4.55174C4.06803 116.119 3.82617 116.365 3.82617 116.856V135.077C3.82617 135.568 4.06803 135.813 4.55174 135.813H14.7098C16.8596 135.813 17.6658 135.24 17.6658 132.922V119.011ZM6.5941 133.167V118.792H13.9573C14.7366 118.792 14.9248 118.956 14.9248 119.747V132.213C14.9248 133.004 14.8173 133.167 13.9573 133.167H6.5941ZM61.3207 128.258C63.4705 128.258 64.2767 127.685 64.2767 125.366V119.011C64.2767 116.692 63.4705 116.119 61.3207 116.119H51.8882C51.4045 116.119 51.1627 116.365 51.1627 116.856V135.077C51.1627 135.568 51.4045 135.813 51.8882 135.813H53.205C53.6887 135.813 53.9306 135.568 53.9306 135.077V128.258H56.9404L60.9445 135.186C61.1863 135.595 61.5626 135.813 62.0463 135.813H63.4705C63.9543 135.813 64.0886 135.595 63.8468 135.186L59.8158 128.258H61.3207ZM53.9575 125.612V118.792H60.5951C61.3744 118.792 61.5626 118.956 61.5626 119.747V124.657C61.5626 125.448 61.4551 125.612 60.5951 125.612H53.9575ZM111.532 119.011C111.532 116.692 110.726 116.119 108.576 116.119H100.299C98.1494 116.119 97.3432 116.692 97.3432 119.011V132.922C97.3432 135.24 98.1494 135.813 100.299 135.813H108.576C110.726 135.813 111.532 135.24 111.532 132.922V119.011ZM101.079 133.167C100.299 133.167 100.111 133.004 100.111 132.213V119.747C100.111 118.956 100.299 118.792 101.079 118.792H107.824C108.603 118.792 108.791 118.956 108.791 119.747V132.213C108.791 133.004 108.684 133.167 107.824 133.167H101.079ZM147.79 116.856C147.79 116.365 147.548 116.119 147.064 116.119H145.747C145.263 116.119 145.022 116.365 145.022 116.856V135.077C145.022 135.568 145.263 135.813 145.747 135.813H147.064C147.548 135.813 147.79 135.568 147.79 135.077V116.856ZM195.15 119.011C195.15 116.692 194.344 116.119 192.194 116.119H182.036C181.552 116.119 181.31 116.365 181.31 116.856V135.077C181.31 135.568 181.552 135.813 182.036 135.813H192.194C194.344 135.813 195.15 135.24 195.15 132.922V119.011ZM184.078 133.167V118.792H191.441C192.221 118.792 192.409 118.956 192.409 119.747V132.213C192.409 133.004 192.301 133.167 191.441 133.167H184.078ZM241.787 127.548C241.787 125.23 240.981 124.657 238.831 124.657H232.113C231.334 124.657 231.146 124.493 231.146 123.702V119.747C231.146 118.956 231.334 118.792 232.113 118.792H238.025C238.804 118.792 238.992 118.956 238.992 119.747V121.247C238.992 121.738 239.234 121.984 239.718 121.984H241.035C241.519 121.984 241.76 121.738 241.76 121.247V119.011C241.76 116.692 240.954 116.119 238.804 116.119H231.361C229.211 116.119 228.404 116.692 228.404 119.011V124.411C228.404 126.73 229.211 127.303 231.361 127.303H238.052C238.831 127.303 239.019 127.466 239.019 128.258V132.213C239.019 133.004 238.831 133.167 238.052 133.167H232.14C231.361 133.167 231.172 133.004 231.172 132.213V130.685C231.172 130.194 230.931 129.949 230.447 129.949H229.157C228.673 129.949 228.431 130.194 228.431 130.685V132.922C228.431 135.24 229.238 135.813 231.387 135.813H238.831C240.981 135.813 241.787 135.24 241.787 132.922V127.548ZM319.576 127.276C320.06 127.276 320.302 127.03 320.302 126.539V125.366C320.302 124.875 320.06 124.63 319.576 124.63H312.992V118.792H321.323C321.807 118.792 322.049 118.547 322.049 118.056V116.856C322.049 116.365 321.807 116.119 321.323 116.119H310.95C310.466 116.119 310.225 116.365 310.225 116.856V135.077C310.225 135.568 310.466 135.813 310.95 135.813H312.267C312.751 135.813 312.992 135.568 312.992 135.077V127.276H319.576ZM368.416 119.011C368.416 116.692 367.61 116.119 365.46 116.119H357.183C355.033 116.119 354.227 116.692 354.227 119.011V132.922C354.227 135.24 355.033 135.813 357.183 135.813H365.46C367.61 135.813 368.416 135.24 368.416 132.922V119.011ZM357.962 133.167C357.183 133.167 356.995 133.004 356.995 132.213V119.747C356.995 118.956 357.183 118.792 357.962 118.792H364.708C365.487 118.792 365.675 118.956 365.675 119.747V132.213C365.675 133.004 365.568 133.167 364.708 133.167H357.962ZM412.064 128.258C414.213 128.258 415.02 127.685 415.02 125.366V119.011C415.02 116.692 414.213 116.119 412.064 116.119H402.631C402.147 116.119 401.906 116.365 401.906 116.856V135.077C401.906 135.568 402.147 135.813 402.631 135.813H403.948C404.432 135.813 404.673 135.568 404.673 135.077V128.258H407.683L411.687 135.186C411.929 135.595 412.305 135.813 412.789 135.813H414.213C414.697 135.813 414.832 135.595 414.59 135.186L410.559 128.258H412.064ZM404.7 125.612V118.792H411.338C412.117 118.792 412.305 118.956 412.305 119.747V124.657C412.305 125.448 412.198 125.612 411.338 125.612H404.7ZM496.441 127.548C496.441 125.23 495.635 124.657 493.485 124.657H486.767C485.987 124.657 485.799 124.493 485.799 123.702V119.747C485.799 118.956 485.987 118.792 486.767 118.792H492.679C493.458 118.792 493.646 118.956 493.646 119.747V121.247C493.646 121.738 493.888 121.984 494.372 121.984H495.688C496.172 121.984 496.414 121.738 496.414 121.247V119.011C496.414 116.692 495.608 116.119 493.458 116.119H486.014C483.864 116.119 483.058 116.692 483.058 119.011V124.411C483.058 126.73 483.864 127.303 486.014 127.303H492.705C493.485 127.303 493.673 127.466 493.673 128.258V132.213C493.673 133.004 493.485 133.167 492.705 133.167H486.793C486.014 133.167 485.826 133.004 485.826 132.213V130.685C485.826 130.194 485.584 129.949 485.1 129.949H483.81C483.327 129.949 483.085 130.194 483.085 130.685V132.922C483.085 135.24 483.891 135.813 486.041 135.813H493.485C495.635 135.813 496.441 135.24 496.441 132.922V127.548ZM539.876 128.258C542.026 128.258 542.832 127.685 542.832 125.366V119.011C542.832 116.692 542.026 116.119 539.876 116.119H530.444C529.96 116.119 529.718 116.365 529.718 116.856V135.077C529.718 135.568 529.96 135.813 530.444 135.813H531.761C532.244 135.813 532.486 135.568 532.486 135.077V128.258H539.876ZM532.486 125.612V118.792H539.124C539.903 118.792 540.091 118.956 540.091 119.747V124.657C540.091 125.448 539.984 125.612 539.124 125.612H532.486ZM589.045 119.011C589.045 116.692 588.239 116.119 586.089 116.119H578.619C576.469 116.119 575.663 116.692 575.663 119.011V135.077C575.663 135.568 575.905 135.813 576.388 135.813H577.705C578.189 135.813 578.431 135.568 578.431 135.077V128.749H586.304V135.077C586.304 135.568 586.546 135.813 587.03 135.813H588.32C588.804 135.813 589.045 135.568 589.045 135.077V119.011ZM578.431 119.747C578.431 118.956 578.619 118.792 579.398 118.792H585.337C586.116 118.792 586.304 118.956 586.304 119.747V126.103H578.431V119.747ZM635.882 130.685C635.882 130.194 635.641 129.949 635.157 129.949H633.867C633.383 129.949 633.141 130.194 633.141 130.685V132.213C633.141 133.004 633.034 133.167 632.174 133.167H626.235C625.456 133.167 625.268 133.004 625.268 132.213V119.747C625.268 118.956 625.456 118.792 626.235 118.792H632.174C632.953 118.792 633.141 118.956 633.141 119.747V121.247C633.141 121.738 633.383 121.984 633.867 121.984H635.157C635.641 121.984 635.882 121.738 635.882 121.247V119.011C635.882 116.692 635.076 116.119 632.926 116.119H625.456C623.306 116.119 622.5 116.692 622.5 119.011V132.922C622.5 135.24 623.306 135.813 625.456 135.813H632.926C635.076 135.813 635.882 135.24 635.882 132.922V130.685ZM681.012 133.904C681.012 133.413 680.77 133.167 680.287 133.167H671.687V127.276H678.54C679.024 127.276 679.265 127.03 679.265 126.539V125.366C679.265 124.875 679.024 124.63 678.54 124.63H671.687V118.792H680.287C680.77 118.792 681.012 118.547 681.012 118.056V116.856C681.012 116.365 680.77 116.119 680.287 116.119H669.645C669.161 116.119 668.919 116.365 668.919 116.856V135.077C668.919 135.568 669.161 135.813 669.645 135.813H680.287C680.77 135.813 681.012 135.568 681.012 135.077V133.904ZM726.851 127.548C726.851 125.23 726.044 124.657 723.895 124.657H717.176C716.397 124.657 716.209 124.493 716.209 123.702V119.747C716.209 118.956 716.397 118.792 717.176 118.792H723.088C723.868 118.792 724.056 118.956 724.056 119.747V121.247C724.056 121.738 724.298 121.984 724.781 121.984H726.098C726.582 121.984 726.824 121.738 726.824 121.247V119.011C726.824 116.692 726.018 116.119 723.868 116.119H716.424C714.274 116.119 713.468 116.692 713.468 119.011V124.411C713.468 126.73 714.274 127.303 716.424 127.303H723.115C723.895 127.303 724.083 127.466 724.083 128.258V132.213C724.083 133.004 723.895 133.167 723.115 133.167H717.203C716.424 133.167 716.236 133.004 716.236 132.213V130.685C716.236 130.194 715.994 129.949 715.51 129.949H714.22C713.737 129.949 713.495 130.194 713.495 130.685V132.922C713.495 135.24 714.301 135.813 716.451 135.813H723.895C726.044 135.813 726.851 135.24 726.851 132.922V127.548Z" fill="black"/>
<defs>
<linearGradient id="paint0_linear_311_3736" x1="358.189" y1="42.9257" x2="442.769" y2="42.9257" gradientUnits="userSpaceOnUse">
<stop stop-color="#49B695"/>
<stop offset="0.5" stop-color="#4F8BC9"/>
<stop offset="1" stop-color="#EF3059"/>
</linearGradient>
</defs>
</svg>
